<svg xmlns="http://www.w3.org/2000/svg" width="200" height="200" viewBox="0 0 200 200">
  <defs>
    <linearGradient id="gk" x1="0%" y1="0%" x2="0%" y2="100%"><stop offset="0%" stop-color="#f5d060"/><stop offset="100%" stop-color="#7a5008"/></linearGradient>
    <filter id="glow"><feGaussianBlur stdDeviation="4" result="b"/><feMerge><feMergeNode in="b"/><feMergeNode in="SourceGraphic"/></feMerge></filter>
  </defs>
  <rect width="200" height="200" rx="22" fill="#0f0a02"/>
  <rect width="200" height="200" rx="22" fill="none" stroke="#3a2c0e" stroke-width="2"/>
  <rect x="1" y="1" width="198" height="198" rx="21" fill="none" stroke="#f5d06030" stroke-width="0.8"/>
  <g filter="url(#glow)">
    <path d="M28 156 L28 84 L62 118 L100 42 L138 118 L172 84 L172 156 Z" fill="url(#gk)"/>
    <rect x="28" y="156" width="144" height="20" rx="6" fill="url(#gk)"/>
    <circle cx="100" cy="42" r="12" fill="white" opacity="0.9"/>
    <circle cx="100" cy="42" r="7" fill="#f5d060"/>
    <circle cx="28" cy="84" r="10" fill="white" opacity="0.7"/>
    <circle cx="172" cy="84" r="10" fill="white" opacity="0.7"/>
    <path d="M28 156 L28 84 L62 118 L100 42 L138 118 L172 84 L172 156 Z" fill="none" stroke="#f5d060" stroke-width="1" opacity="0.4"/>
  </g>
</svg>
