<svg xmlns="http://www.w3.org/2000/svg" width="200" height="200" viewBox="0 0 200 200">
  <defs>
    <radialGradient id="gs" cx="40%" cy="30%"><stop offset="0%" stop-color="#f0d070"/><stop offset="100%" stop-color="#8a5e10"/></radialGradient>
    <filter id="glow"><feGaussianBlur stdDeviation="4" result="b"/><feMerge><feMergeNode in="b"/><feMergeNode in="SourceGraphic"/></feMerge></filter>
  </defs>
  <rect width="200" height="200" rx="22" fill="#0f0a02"/>
  <rect width="200" height="200" rx="22" fill="none" stroke="#3a2c0e" stroke-width="2"/>
  <rect x="1" y="1" width="198" height="198" rx="21" fill="none" stroke="#f5d06030" stroke-width="0.8"/>
  <g filter="url(#glow)">
    <path d="M100 30 C100 30 158 68 158 104 C158 128 140 136 124 124 C128 140 136 158 144 164 H56 C64 158 72 140 76 124 C60 136 42 128 42 104 C42 68 100 30 100 30Z" fill="url(#gs)"/>
    <path d="M100 30 C100 30 158 68 158 104 C158 128 140 136 124 124 C128 140 136 158 144 164 H56 C64 158 72 140 76 124 C60 136 42 128 42 104 C42 68 100 30 100 30Z" fill="none" stroke="#f5d060" stroke-width="1" opacity="0.5"/>
  </g>
</svg>
