<svg xmlns="http://www.w3.org/2000/svg" viewBox="0 0 40 40" width="40" height="40">
  <style>.g{fill:#C8A96E}.e{fill:none;stroke:#C8A96E;stroke-linecap:round;stroke-linejoin:round}</style>

  <!-- Card body -->
  <rect class="e" stroke-width="1.5" x="6" y="4" width="28" height="34" rx="3"/>

  <!-- Question mark — main symbol -->
  <path class="e" stroke-width="2.2" d="M15 14 Q15 9 20 9 Q25 9 25 14 Q25 18 20 20 L20 24" fill="none"/>
  <circle class="g" cx="20" cy="28" r="1.8"/>

  <!-- Corner suit top-left (diamond) -->
  <path class="g" d="M9 7 L11 10 L9 13 L7 10Z"/>
  <!-- Corner suit bottom-right (diamond flipped) -->
  <path class="g" d="M31 27 L33 30 L31 33 L29 30Z"/>

  <!-- Decorative stars top-right & bottom-left -->
  <path class="e" stroke-width="1" d="M30 6 L31 9 L34 9 L32 11 L33 14 L30 12 L27 14 L28 11 L26 9 L29 9Z" fill="none" opacity="0.6"/>
  <path class="e" stroke-width="1" d="M10 26 L11 29 L14 29 L12 31 L13 34 L10 32 L7 34 L8 31 L6 29 L9 29Z" fill="none" opacity="0.6"/>

</svg>
