<svg xmlns="http://www.w3.org/2000/svg" viewBox="0 0 70 80" width="70" height="80">
  <style>.col{fill:none;stroke:#C8A96E;stroke-linecap:round;stroke-linejoin:round}.dot{fill:#C8A96E}</style>
  <rect class="col" stroke-width="1.8" x="5" y="18" width="60" height="52" rx="6"/>
  <rect x="5" y="18" width="60" height="16" rx="6" fill="#C8A96E" opacity="0.15"/>
  <line x1="5" y1="34" x2="65" y2="34" stroke="#C8A96E" stroke-width="1.2"/>
  <line x1="22" y1="10" x2="22" y2="24" stroke="#C8A96E" stroke-width="2.5" stroke-linecap="round"/>
  <line x1="48" y1="10" x2="48" y2="24" stroke="#C8A96E" stroke-width="2.5" stroke-linecap="round"/>
  <circle cx="18" cy="42" r="2" class="dot" opacity="0.5"/>
  <circle cx="28" cy="42" r="2" class="dot" opacity="0.5"/>
  <circle cx="38" cy="42" r="2" class="dot" opacity="0.5"/>
  <circle cx="48" cy="42" r="2" class="dot" opacity="0.5"/>
  <circle cx="58" cy="42" r="2" class="dot" opacity="0.5"/>
  <circle cx="18" cy="52" r="2" class="dot" opacity="0.5"/>
  <circle cx="28" cy="52" r="2" class="dot" opacity="0.5"/>
  <rect x="34" y="47" width="14" height="12" rx="3" class="col" stroke-width="1.2"/>
  <circle cx="41" cy="53" r="2.5" class="dot"/>
  <circle cx="48" cy="52" r="2" class="dot" opacity="0.5"/>
  <circle cx="58" cy="52" r="2" class="dot" opacity="0.5"/>
  <text style="font-family:Georgia,serif;font-size:7px;fill:#C8A96E;text-anchor:middle;" x="35" y="29">MM / DD / YYYY</text>
</svg>
