<svg xmlns="http://www.w3.org/2000/svg" viewBox="0 0 90 108" width="90" height="108">
  <path d="M15 18 Q15 10 22 10 L45 12 L68 10 Q75 10 75 18 L75 88 Q75 96 68 96 L45 94 L22 96 Q15 96 15 88Z" fill="none" stroke="#C8A96E" stroke-width="1.8"/>
  <line x1="45" y1="12" x2="45" y2="94" stroke="#C8A96E" stroke-width="1.5"/>
  <line x1="22" y1="30" x2="40" y2="30" stroke="#C8A96E" stroke-width="1.2" stroke-linecap="round" opacity="0.7"/>
  <line x1="22" y1="40" x2="40" y2="40" stroke="#C8A96E" stroke-width="1.2" stroke-linecap="round" opacity="0.7"/>
  <line x1="22" y1="50" x2="40" y2="50" stroke="#C8A96E" stroke-width="1.2" stroke-linecap="round" opacity="0.7"/>
  <line x1="22" y1="60" x2="36" y2="60" stroke="#C8A96E" stroke-width="1.2" stroke-linecap="round" opacity="0.5"/>
  <line x1="50" y1="30" x2="68" y2="30" stroke="#C8A96E" stroke-width="1.2" stroke-linecap="round" opacity="0.7"/>
  <line x1="50" y1="40" x2="68" y2="40" stroke="#C8A96E" stroke-width="1.2" stroke-linecap="round" opacity="0.7"/>
  <line x1="50" y1="50" x2="68" y2="50" stroke="#C8A96E" stroke-width="1.2" stroke-linecap="round" opacity="0.7"/>
  <line x1="50" y1="60" x2="64" y2="60" stroke="#C8A96E" stroke-width="1.2" stroke-linecap="round" opacity="0.5"/>
  <rect x="53" y="68" width="12" height="12" rx="2" fill="none" stroke="#C8A96E" stroke-width="1"/>
  <circle cx="57" cy="72" r="1.5" fill="#C8A96E"/>
  <circle cx="61" cy="76" r="1.5" fill="#C8A96E"/>
</svg>
